<?xml version="1.0" encoding="UTF-8" standalone="no"?>
<svg
   viewBox="16.66 26.18 160.63 153.11"
   version="1.1"
   xmlns="http://www.w3.org/2000/svg">
  <!-- Blue background (humans) - rounded top corners, square bottom -->
  <path d="M 30.66,26.18 H 163.29 A 14,14 0 0 1 177.29,40.18 V 107.86 H 16.66 V 40.18 A 14,14 0 0 1 30.66,26.18 Z" fill="#0ea5e9" />
  <!-- Orange background (car) - square top, rounded bottom corners -->
  <path d="M 16.66,110.86 H 177.29 V 165.29 A 14,14 0 0 1 163.29,179.29 H 30.66 A 14,14 0 0 1 16.66,165.29 Z" fill="#ff8200" />
  <!-- Humans (white) - moved up -->
  <g transform="translate(0, -66.77)">
  <path
     fill="#ffffff"
     d="m 60.856513,166.64133 c -1.66152,-0.83345 -2.42133,-1.56958 -3.15333,-3.05507 -0.58315,-1.18341 -0.60087,-1.47293 -0.72995,-11.92847 l -0.13229,-10.71563 -1.21804,-0.30069 c -0.66992,-0.16538 -1.46075,-0.43058 -1.7574,-0.58935 -0.85196,-0.45595 -1.87422,-1.81525 -2.17229,-2.88848 -0.34295,-1.23484 -0.35831,-9.19532 -0.0217,-11.25051 0.49927,-3.04846 2.43455,-5.60981 5.28193,-6.99065 1.42475,-0.69093 1.65634,-0.7188 6.79532,-0.81759 5.0316,-0.0967 7.57005,0.11663 8.52987,0.71693 0.27818,0.17398 0.12638,0.56449 -0.69153,1.77892 -1.96028,2.91063 -2.04614,3.36451 -2.04614,10.81642 0,6.35842 0.0231,6.65785 0.59693,7.73171 0.32832,0.61442 0.95867,1.52911 1.40077,2.03264 l 0.80384,0.91552 -0.0779,10.27048 c -0.0754,9.94172 -0.0961,10.30437 -0.64894,11.32882 -1.36346,2.52678 -3.01178,3.38724 -6.70496,3.50017 -2.50698,0.0767 -2.90267,0.0225 -4.05422,-0.55517 z m 21.117,0.28769 c -1.60474,-0.64922 -2.55876,-1.40917 -3.38512,-2.69654 l -0.84537,-1.31697 -0.13229,-10.96681 -0.13229,-10.9668 -1.41548,-0.31866 c -1.71396,-0.38586 -2.62354,-1.02269 -3.41615,-2.39178 -0.58118,-1.00388 -0.59633,-1.21143 -0.52917,-7.25117 0.0661,-5.94088 0.0971,-6.27402 0.69732,-7.48243 0.92838,-1.86909 2.69011,-3.68126 4.43989,-4.56701 l 1.54651,-0.78285 h 6.21771 c 4.67311,0 6.43132,0.0901 7.0776,0.36283 1.04236,0.43981 1.06116,0.64556 0.15678,1.71564 -1.97087,2.33198 -2.58534,5.56469 -2.4125,12.69195 0.12958,5.34296 0.40908,6.44161 2.0269,7.9671 l 0.82413,0.77711 -0.006,10.33539 c -0.005,9.43916 -0.0477,10.42717 -0.4892,11.39373 -0.5786,1.26677 -1.87206,2.57848 -3.18069,3.22558 -1.18551,0.58622 -5.82309,0.76512 -7.04277,0.27169 z m 19.978887,-0.21139 c -1.46797,-0.6645 -2.51777,-1.63583 -3.265377,-3.0213 -0.55166,-1.02234 -0.57558,-1.42717 -0.70337,-11.90458 l -0.13229,-10.84625 -1.19063,-0.26625 c -1.58373,-0.35416 -2.66317,-1.03932 -3.45167,-2.19091 -0.64424,-0.9409 -0.64937,-0.99759 -0.64937,-7.18478 0,-6.20546 0.004,-6.24387 0.70649,-7.74359 0.86096,-1.83677 2.60531,-3.63244 4.49588,-4.62818 L 99.17427,118.188 h 6.35 c 5.20691,0 6.5047,0.0742 7.20932,0.41242 l 0.85931,0.41241 -0.6918,0.9105 c -0.38049,0.50078 -1.06484,1.68441 -1.52077,2.63029 l -0.82896,1.71979 v 7.01146 7.01146 l 0.70018,1.19095 c 0.3851,0.65502 0.95065,1.41761 1.25677,1.69465 0.54785,0.4958 0.55659,0.66796 0.55659,10.9625 0,10.06782 -0.0207,10.50148 -0.55292,11.60098 -0.67406,1.39241 -2.06053,2.57812 -3.64659,3.11854 -1.78127,0.60694 -5.41904,0.52994 -6.913,-0.14632 z m 20.75996,0.12953 c -1.52007,-0.53972 -2.86755,-1.74318 -3.59325,-3.20921 -0.61938,-1.25124 -0.62738,-1.37706 -0.7604,-11.96315 l -0.13443,-10.69861 -1.21966,-0.31086 c -1.76631,-0.45019 -2.74786,-1.11707 -3.45175,-2.34517 -0.60017,-1.04713 -0.62025,-1.27489 -0.62025,-7.03529 v -5.95312 l 0.82245,-1.71979 c 0.98678,-2.06342 2.61817,-3.73338 4.59819,-4.70687 l 1.45852,-0.71709 h 6.35 6.35 l 1.32292,0.70409 c 2.1335,1.13551 3.47011,2.46394 4.42066,4.39358 l 0.87101,1.76818 0.0879,5.87245 c 0.0813,5.43276 0.0478,5.9632 -0.44823,7.08446 -0.60831,1.3752 -1.82438,2.24454 -3.7328,2.66849 l -1.19854,0.26625 -0.13229,10.84625 c -0.1278,10.47741 -0.15171,10.88224 -0.70338,11.90458 -1.36677,2.53293 -3.36145,3.56718 -6.83725,3.54518 -1.35489,-0.009 -2.84165,-0.17855 -3.44942,-0.39435 z m -60.184587,-51.6845 c -1.98441,-0.60363 -3.84876,-2.24546 -4.78377,-4.21279 -0.81081,-1.706 -0.80919,-4.45864 0.004,-6.16897 0.76877,-1.61766 2.11158,-2.97399 3.78275,-3.82084 1.17791,-0.59689 1.6037,-0.6707 3.35688,-0.5819 2.33114,0.11808 3.64727,0.66383 5.09695,2.11352 1.65427,1.65426 2.17775,2.94281 2.18468,5.37756 0.005,1.85277 -0.0913,2.29363 -0.77415,3.53596 -0.88057,1.60194 -2.37202,2.91779 -4.04196,3.56607 -1.16131,0.45082 -3.64789,0.54946 -4.82501,0.19139 z m 19.39217,-0.54028 c -2.63686,-1.33388 -4.06005,-3.50935 -4.24481,-6.48855 -0.13933,-2.24684 0.42009,-3.7549 2.04801,-5.52099 1.51284,-1.64124 3.41081,-2.37816 5.75706,-2.23528 2.18495,0.13305 3.52498,0.74444 5.09512,2.32466 2.72268,2.74016 2.82568,7.22381 0.23353,10.16537 -1.44544,1.64029 -2.91276,2.32879 -5.26062,2.46839 -1.82173,0.10832 -2.11911,0.0498 -3.62829,-0.7136 z m 20.309057,-0.0476 c -2.03658,-1.05953 -3.260787,-2.52815 -3.878427,-4.65274 -1.04572,-3.59717 0.50808,-7.07972 3.919267,-8.78431 2.98215,-1.490199 6.34337,-0.94495 8.71703,1.41407 1.48723,1.47805 2.10744,3.04295 2.10744,5.31745 0,3.01178 -1.22305,5.07979 -3.94908,6.67735 -0.91036,0.5335 -1.63564,0.716 -3.19318,0.80347 -1.88098,0.10563 -2.12908,0.054 -3.72305,-0.77529 z m 21.6214,0.57166 c -1.80153,-0.54245 -3.67923,-2.23346 -4.69845,-4.23129 -0.74977,-1.46968 -0.73879,-4.59355 0.0218,-6.21172 0.68497,-1.45722 2.51413,-3.17547 4.10753,-3.85848 3.4194,-1.465722 7.787,0.15568 9.57087,3.55304 0.60414,1.15056 0.70961,1.67339 0.70026,3.47126 -0.0175,3.35822 -1.35677,5.47128 -4.34796,6.8599 -1.51697,0.70424 -3.80807,0.8828 -5.35409,0.41729 z"
     id="path2" />
  </g>
  <!-- Car (white) - moved down -->
  <g transform="translate(0, 80.03)">
  <path
     fill="#ffffff"
     d="m 50.708555,91.699243 c -4.314904,-0.92448 -7.598695,-4.06757 -8.740414,-8.36592 -0.384811,-1.44874 -0.416504,-3.7655 -0.07217,-5.27601 0.838548,-3.67857 3.555086,-6.80795 7.051811,-8.12349 6.446337,-2.42526 13.501418,1.32477 15.102544,8.02754 0.235642,0.98646 0.271467,1.47543 0.220129,3.00452 -0.05372,1.60008 -0.114899,1.98551 -0.49388,3.11149 -1.605569,4.77027 -5.916448,7.87877 -10.866083,7.83534 -0.691386,-0.006 -1.682256,-0.10212 -2.201934,-0.21347 z m 86.781465,0.0143 c -4.46801,-0.95896 -7.92706,-4.41393 -8.86015,-8.84966 -0.26095,-1.24053 -0.26095,-3.36709 0,-4.60763 0.87721,-4.17009 3.98465,-7.48388 8.14512,-8.686 0.87665,-0.25329 1.38211,-0.30424 3.01483,-0.30386 2.17677,5.1e-4 2.93694,0.15555 4.71326,0.96131 4.42476,2.00712 7.14558,6.84556 6.54104,11.63195 -0.3427,2.71337 -1.30665,4.70742 -3.20501,6.62991 -1.79372,1.81653 -3.75798,2.85716 -6.21401,3.29208 -1.09221,0.1934 -3.06831,0.16086 -4.13508,-0.0681 z M 32.781548,83.612083 c -1.618188,-0.33174 -2.929344,-1.40524 -3.698006,-3.02772 l -0.428103,-0.90363 0.01543,-5.47894 c 0.01603,-5.69205 0.166609,-8.34671 0.588471,-10.3747 0.572763,-2.75339 1.856648,-5.25757 3.284574,-6.40645 1.554603,-1.2508 3.481927,-2.00618 8.084004,-3.16839 5.00997,-1.26521 8.050891,-2.2285 9.757861,-3.09107 0.622799,-0.31471 3.323934,-2.09169 6.002522,-3.94884 5.271634,-3.65499 7.123541,-4.72367 10.184231,-5.87703 5.725259,-2.15744 11.754429,-3.16803 18.833815,-3.15685 8.949595,0.0141 18.759733,1.6377 27.056453,4.47778 2.24628,0.76894 4.04932,1.51159 6.81212,2.80585 2.84173,1.33124 4.52706,2.26723 6.31026,3.50458 0.70684,0.49048 2.25921,1.55758 3.44969,2.37134 1.19048,0.81376 2.74285,1.97768 3.4497,2.58649 1.81211,1.56078 2.38798,1.79875 5.20837,2.15223 2.51486,0.31519 7.06762,1.09793 10.68004,1.83617 8.22097,1.68007 13.21103,4.04733 15.00967,7.12055 0.59377,1.01453 1.28826,3.12791 1.6099,4.899 0.2614,1.43939 0.29618,2.10093 0.2956,5.62217 -5.1e-4,3.29677 -0.0396,4.13199 -0.22477,4.80252 -0.63246,2.29066 -1.2011,3.20184 -2.01182,3.22371 -1.99135,0.0537 -8.92384,-0.0672 -8.86978,-0.15464 0.0374,-0.0605 0.13177,-0.73119 0.20967,-1.49035 0.17205,-1.67661 0.0139,-3.4693 -0.46487,-5.26969 -1.97731,-7.43551 -9.57238,-12.0809 -17.18202,-10.50908 -4.29375,0.8869 -8.15782,3.8531 -10.15584,7.79599 -0.52655,1.0391 -1.10319,2.903 -1.35252,4.37181 -0.22313,1.31447 -0.21011,3.80467 0.0253,4.83936 l 0.0846,0.37202 -26.632551,4.1e-4 c -14.647905,2.3e-4 -27.686068,0.0404 -28.973696,0.0892 l -2.341141,0.0888 0.108984,-0.73181 c 0.197166,-1.32394 0.125343,-4.29548 -0.132908,-5.49886 -1.067498,-4.97422 -4.783533,-9.18204 -9.544701,-10.80785 -3.043055,-1.03911 -5.875193,-1.11454 -8.934853,-0.23795 -5.011013,1.43565 -8.727384,5.27929 -10.187945,10.53684 -0.314958,1.13375 -0.474623,4.57398 -0.26998,5.81714 0.07349,0.44643 0.124632,0.81919 0.11365,0.82835 -0.139484,0.11637 -5.196719,0.10893 -5.769462,-0.008 z m 92.330642,-27.53866 c 0.37215,-0.41123 0.13834,-0.75535 -1.37583,-2.02485 -5.5551,-4.65746 -14.51534,-8.47225 -23.34434,-9.93878 -2.519693,-0.41853 -6.107884,-0.79739 -6.468414,-0.68296 -0.145425,0.0462 -0.303126,0.23817 -0.350442,0.4267 -0.0473,0.18852 0.234371,2.72608 0.625968,5.63901 0.589839,4.3876 0.756048,5.34267 0.968791,5.56682 0.246591,0.2598 0.768903,0.29001 13.138687,0.75979 7.08504,0.26908 13.70952,0.49737 14.72106,0.50731 1.68147,0.0165 1.8602,-0.005 2.08452,-0.25304 z m -35.956185,-1.31244 c 0.118968,-0.31003 -1.157508,-11.01136 -1.339632,-11.23081 -0.313525,-0.37777 -5.067491,-0.16638 -8.497726,0.37786 -7.336544,1.16402 -12.957689,3.46307 -17.789618,7.27596 -1.203453,0.94964 -3.179134,2.85819 -3.179134,3.07111 0,0.49631 0.209539,0.51013 9.10563,0.60056 4.776194,0.0486 11.592777,0.099 15.147962,0.11217 5.980398,0.0221 6.470598,0.007 6.552518,-0.20685 z"
     id="path1" />
  </g>
</svg>
